<svg xmlns="http://www.w3.org/2000/svg" width="67.906" height="68.99" viewBox="0 0 67.906 68.99"><defs><style>.a{fill:none;stroke:#92278f;stroke-linecap:round;stroke-linejoin:round;stroke-miterlimit:10;stroke-width:5px;}</style></defs><path class="a" d="M1101.865,372.371l-38.061.777a6,6,0,0,0-5.844,6.091l.812,38.838a5.949,5.949,0,0,0,10.257,3.99l.406-.406a5.97,5.97,0,0,0,1.659-4.255l-.547-26.48a5.949,5.949,0,0,1,5.825-6.09l25.739-.53a5.984,5.984,0,0,0,4.219-1.871h0a5.967,5.967,0,0,0-4.466-10.063Z" transform="matrix(0.966, 0.259, -0.259, 0.966, -909.103, -630.438)"/></svg>