<svg xmlns="http://www.w3.org/2000/svg" width="71.599" height="55.069" viewBox="0 0 71.599 55.069"><defs><style>.a{fill:none;stroke:#00aeef;stroke-linecap:round;stroke-linejoin:round;stroke-width:5px;}</style></defs><path class="a" d="M1224.643,394a3.762,3.762,0,0,1,3.222,1.783l22.828,36.133a3.83,3.83,0,0,1-1.662,5.538l-35.558,16.006a3.823,3.823,0,0,1-5.3-4.4l12.731-52.146a3.788,3.788,0,0,1,3.735-2.918m0-3.377a7.193,7.193,0,0,0-7.017,5.5L1204.9,448.284a7.235,7.235,0,0,0,9.989,8.28l35.559-16.006a7.206,7.206,0,0,0,3.134-10.421L1230.748,394a7.125,7.125,0,0,0-6.078-3.377Z" transform="translate(-388.12 1257.233) rotate(-90)"/></svg>