<svg id="Layer_1" data-name="Layer 1" xmlns="http://www.w3.org/2000/svg" viewBox="0 0 676.86 72.56">
  <defs>
    <style>
      .cls-5{fill:#fff}
    </style>
  </defs>
  <path id="_Path_" data-name="&lt;Path&gt;" fill="#fdbf09" d="M36.18 44.98L31.5 36.9 20.28 56.3h9.61l6.42-11.1-.13-.22z"/>
  <path fill="#0f9b58" d="M26.45 28.15l5.05 8.75-11.22 19.4H10.16l16.29-28.15z"/>
  <g id="_Group_" data-name="&lt;Group&gt;">
    <path id="_Path_2" data-name="&lt;Path&gt;" fill="#4383f2" d="M20.28 0H10.16l26.15 45.2 5.05-8.73.01-.01L20.28 0z"/>
  </g>
  <path d="M44.64 30.79a5.25 5.25 0 0 0 0-5.28L29.89 0h-9.61l21.09 36.46z" fill="#d94437"/>
  <path class="cls-5" d="M120.61 30.33q0 11.3-6.7 18-7.53 8-19.8 8a27 27 0 0 1-19.87-8.13 27.2 27.2 0 0 1-8.13-20 27.2 27.2 0 0 1 8.13-20A27 27 0 0 1 94.11 0a29.89 29.89 0 0 1 11.22 2.11A22.36 22.36 0 0 1 114 8.05l-5 5a16.64 16.64 0 0 0-6.43-4.7 21.25 21.25 0 0 0-8.47-1.7 20.28 20.28 0 0 0-14.9 6.1 21.21 21.21 0 0 0-6 15.43 21.19 21.19 0 0 0 6 15.43 20.24 20.24 0 0 0 14.9 6.1 20 20 0 0 0 13.4-4.52q5.34-4.52 6.17-12.42H94.11v-6.5h26.12a23.25 23.25 0 0 1 .38 4.06zM129 55.1V1.2h16.48q12.35 0 19.84 7.46t7.49 19.49q0 12.12-7.49 19.53t-19.8 7.42zm7-47.27v40.64h9.56q9.42 0 14.83-5.38t5.42-14.94q0-9.48-5.42-14.9t-14.87-5.42zM232.91 30.33q0 11.3-6.7 18-7.53 8-19.79 8a27 27 0 0 1-19.88-8.13 27.2 27.2 0 0 1-8.13-20 27.2 27.2 0 0 1 8.13-20A27 27 0 0 1 206.42 0a29.8 29.8 0 0 1 11.21 2.11 22.39 22.39 0 0 1 8.66 5.94l-5 5a16.67 16.67 0 0 0-6.44-4.7 21.2 21.2 0 0 0-8.46-1.7 20.32 20.32 0 0 0-14.91 6.1 21.24 21.24 0 0 0-6 15.43 21.22 21.22 0 0 0 6 15.43 20.28 20.28 0 0 0 14.91 6.1 20 20 0 0 0 13.39-4.52q5.35-4.52 6.18-12.42h-19.54v-6.5h26.12a23.21 23.21 0 0 1 .37 4.06zM308.26 30.33q0 11.3-6.7 18-7.53 8-19.8 8a27 27 0 0 1-19.87-8.13 27.2 27.2 0 0 1-8.13-20 27.2 27.2 0 0 1 8.13-20A27 27 0 0 1 281.76 0 29.81 29.81 0 0 1 293 2.11a22.28 22.28 0 0 1 8.65 5.94l-5 5a16.75 16.75 0 0 0-6.44-4.7 21.25 21.25 0 0 0-8.47-1.7 20.28 20.28 0 0 0-14.9 6.1 21.21 21.21 0 0 0-6 15.43 21.19 21.19 0 0 0 6 15.43 21.64 21.64 0 0 0 28.3 1.58q5.34-4.52 6.17-12.42h-19.55v-6.5h26.12a23.25 23.25 0 0 1 .38 4.06zM328.36 17q7.67 0 12.12 4.1t4.43 11.26V55.1h-6.62V50H338q-4.29 6.32-11.44 6.32a14.87 14.87 0 0 1-10.2-3.61 11.55 11.55 0 0 1-4.1-9 11 11 0 0 1 4.32-9.11q4.33-3.39 11.56-3.39a20.4 20.4 0 0 1 10.16 2.26v-1.63a7.89 7.89 0 0 0-2.86-6.14 9.8 9.8 0 0 0-6.7-2.52 10.62 10.62 0 0 0-9.18 4.9l-6.1-3.84q5.03-7.24 14.9-7.24zm-9 26.8a5.5 5.5 0 0 0 2.3 4.51 8.41 8.41 0 0 0 5.38 1.81 11 11 0 0 0 7.79-3.24 10.13 10.13 0 0 0 3.42-7.6c-2.16-1.7-5.17-2.56-9-2.56a11.71 11.71 0 0 0-7 2 6 6 0 0 0-2.85 5.09zM352.74 18.21h6.63v5.12h.3a12.29 12.29 0 0 1 4.85-4.51 13.9 13.9 0 0 1 6.82-1.82q6.77 0 10.42 3.88t3.65 11V55.1h-6.93V32.37q-.23-9-9.1-9a8.68 8.68 0 0 0-6.93 3.35 12.19 12.19 0 0 0-2.78 8V55.1h-6.93zM409 56.3a16.2 16.2 0 0 1-12.42-5.72 20.31 20.31 0 0 1-5.12-13.92 20.35 20.35 0 0 1 5.12-13.93A16.23 16.23 0 0 1 409 17a16 16 0 0 1 7.42 1.73 13 13 0 0 1 5.15 4.59h.3l-.3-5.12v-17h6.93v53.9h-6.63V50h-.3a12.89 12.89 0 0 1-5.15 4.59A15.88 15.88 0 0 1 409 56.3zm1.1-6.3a10.62 10.62 0 0 0 8.36-3.69 13.71 13.71 0 0 0 3.38-9.63 13.78 13.78 0 0 0-3.38-9.56 10.67 10.67 0 0 0-8.36-3.77 10.82 10.82 0 0 0-8.36 3.77 13.78 13.78 0 0 0-3.38 9.56 13.62 13.62 0 0 0 3.38 9.56A10.81 10.81 0 0 0 410.1 50zM436.9 1.2h6.92v17l-.3 5.12h.3a12.29 12.29 0 0 1 4.85-4.51 13.9 13.9 0 0 1 6.82-1.81q6.76 0 10.42 3.88t3.65 11V55.1h-6.92V33.27q0-9.93-8.81-9.94a8.91 8.91 0 0 0-7.11 3.5 12.45 12.45 0 0 0-2.9 8.17v20.1h-6.92zM486.65 5.49A4.75 4.75 0 0 1 485.22 9a4.9 4.9 0 0 1-6.92 0 4.72 4.72 0 0 1-1.44-3.47A4.71 4.71 0 0 1 478.3 2a4.9 4.9 0 0 1 6.92 0 4.74 4.74 0 0 1 1.43 3.49zm-1.43 12.72V55.1h-6.92V18.21zM494.25 18.21h6.62v5.12h.31a12.29 12.29 0 0 1 4.82-4.51 13.84 13.84 0 0 1 6.84-1.82q6.78 0 10.43 3.88t3.65 11V55.1H520V32.37q-.22-9-9.1-9a8.68 8.68 0 0 0-6.9 3.31 12.19 12.19 0 0 0-2.78 8V55.1h-6.93zM548.67 17q7.68 0 12.12 4.1t4.44 11.26V55.1h-6.62V50h-.3q-4.31 6.3-11.44 6.3a14.85 14.85 0 0 1-10.2-3.61 11.52 11.52 0 0 1-4.1-9 11 11 0 0 1 4.32-9.11q4.33-3.39 11.56-3.39a20.4 20.4 0 0 1 10.16 2.26v-1.61a7.89 7.89 0 0 0-2.86-6.14 9.82 9.82 0 0 0-6.7-2.52 10.62 10.62 0 0 0-9.18 4.9l-6.1-3.84q5.04-7.24 14.9-7.24zm-8.95 26.8a5.52 5.52 0 0 0 2.28 4.52 8.43 8.43 0 0 0 5.39 1.81 11.06 11.06 0 0 0 7.79-3.24 10.13 10.13 0 0 0 3.42-7.6c-2.16-1.7-5.17-2.56-9-2.56a11.71 11.71 0 0 0-7 2 6 6 0 0 0-2.88 5.08zM589 72.56a20.41 20.41 0 0 1-5.79-.79 18.89 18.89 0 0 1-4.93-2.22 15.5 15.5 0 0 1-3.8-3.39 14.1 14.1 0 0 1-2.41-4.36l6.54-2.71a10.4 10.4 0 0 0 3.92 5.19 10.93 10.93 0 0 0 6.47 2q5.65 0 8.81-3.39t3.19-9.37V50h-.3a13.61 13.61 0 0 1-5.31 4.63 15.83 15.83 0 0 1-7.26 1.69 16.3 16.3 0 0 1-12.42-5.64 20.44 20.44 0 0 1-5.12-14 20.18 20.18 0 0 1 5.12-13.93A16.22 16.22 0 0 1 588.12 17a16 16 0 0 1 7.26 1.69 13.69 13.69 0 0 1 5.31 4.63h.3v-5.11h6.63v35.31q0 8.88-5 13.92T589 72.56zm.25-22.56a10.6 10.6 0 0 0 8.35-3.69 13.67 13.67 0 0 0 3.4-9.65 13.74 13.74 0 0 0-3.39-9.56 10.65 10.65 0 0 0-8.35-3.77 10.82 10.82 0 0 0-8.36 3.77 13.73 13.73 0 0 0-3.38 9.56 13.58 13.58 0 0 0 3.38 9.56 10.81 10.81 0 0 0 8.35 3.78zM629.67 17q7.68 0 12.12 4.1t4.44 11.26V55.1h-6.63V50h-.3q-4.3 6.3-11.44 6.3a14.88 14.88 0 0 1-10.2-3.61 11.55 11.55 0 0 1-4.1-9 11 11 0 0 1 4.33-9.11q4.32-3.39 11.55-3.39a20.4 20.4 0 0 1 10.16 2.26v-1.61a7.89 7.89 0 0 0-2.86-6.14 9.8 9.8 0 0 0-6.7-2.52 10.62 10.62 0 0 0-9.18 4.9l-6.1-3.84Q619.82 17 629.67 17zm-9 26.8a5.5 5.5 0 0 0 2.3 4.51 8.41 8.41 0 0 0 5.38 1.81 11 11 0 0 0 7.79-3.24 10.13 10.13 0 0 0 3.42-7.6c-2.16-1.7-5.17-2.56-9-2.56a11.71 11.71 0 0 0-7 2 6 6 0 0 0-2.85 5.09zM661 55.1h-6.93V18.21h6.63v6h.3a10 10 0 0 1 4.33-5 12 12 0 0 1 6.43-2.07 13 13 0 0 1 5.12.9l-2.11 6.7a11.52 11.52 0 0 0-4.06-.52 9 9 0 0 0-6.81 3.16 10.59 10.59 0 0 0-2.9 7.37z"/>
</svg>