<?xml version="1.0" encoding="iso-8859-1"?>
<!-- Generator: Adobe Illustrator 19.0.0, SVG Export Plug-In . SVG Version: 6.00 Build 0)  -->
<svg version="1.1" id="Layer_1" xmlns="http://www.w3.org/2000/svg" xmlns:xlink="http://www.w3.org/1999/xlink" x="0px" y="0px"
	 viewBox="0 0 512.009 512.009" style="enable-background:new 0 0 512.009 512.009;" xml:space="preserve">
<g>
	<g>
		<g>
			<path d="M256.256,469.333h-0.077c-4.719,0-8.499,3.823-8.499,8.533c0,4.719,3.866,8.533,8.576,8.533
				c4.719,0,8.533-3.814,8.533-8.533C264.789,473.156,260.975,469.333,256.256,469.333z"/>
			<path d="M311.509,410.726l-55.501,31.71l-55.501-31.71c-4.087-2.33-9.31-0.913-11.648,3.174c-2.33,4.096-0.913,9.31,3.174,11.639
				l59.742,34.133c0.649,0.375,1.34,0.657,2.057,0.845c0.717,0.188,1.442,0.282,2.167,0.282h0.009h0.009
				c0.717,0,1.442-0.094,2.159-0.282s1.417-0.469,2.065-0.845l59.733-34.133c4.087-2.33,5.513-7.543,3.174-11.639
				C320.811,409.813,315.597,408.397,311.509,410.726z"/>
			<path d="M256.256,494.933h-0.077c-4.719,0-8.499,3.823-8.499,8.533c0,4.719,3.866,8.533,8.576,8.533
				c4.719,0,8.533-3.814,8.533-8.533C264.789,498.756,260.975,494.933,256.256,494.933z"/>
			<path d="M162.142,409.6h-51.2c-83.081,0-92.715,33.638-99.746,58.189c-0.725,2.543-1.434,5.026-2.219,7.381l-8.533,25.6
				c-1.493,4.471,0.922,9.301,5.393,10.795c0.896,0.299,1.809,0.444,2.705,0.444c3.575,0,6.903-2.261,8.09-5.837l8.533-25.6
				c0.862-2.586,1.638-5.291,2.441-8.081c5.888-20.557,12.681-43.682,74.803-45.628v76.604c0,4.719,3.814,8.533,8.533,8.533
				c4.71,0,8.533-3.814,8.533-8.533v-76.8h17.067v76.8c0,4.719,3.814,8.533,8.533,8.533c4.71,0,8.533-3.814,8.533-8.533v-76.8h8.533
				c4.71,0,8.533-3.814,8.533-8.533C170.675,413.423,166.852,409.6,162.142,409.6z"/>
			<path d="M264.542,290.133h-17.067c-4.719,0-8.533,3.823-8.533,8.533c0,4.719,3.814,8.533,8.533,8.533h17.067
				c4.71,0,8.533-3.814,8.533-8.533C273.075,293.956,269.252,290.133,264.542,290.133z"/>
			<path d="M511.565,500.77l-8.533-25.6c-0.785-2.355-1.485-4.838-2.219-7.381c-7.031-24.55-16.666-58.189-99.738-58.189h-51.2
				c-4.719,0-8.533,3.823-8.533,8.533c0,4.719,3.814,8.533,8.533,8.533h8.533v76.8c0,4.719,3.814,8.533,8.533,8.533
				c4.71,0,8.533-3.814,8.533-8.533v-76.8h17.067v76.8c0,4.719,3.814,8.533,8.533,8.533c4.71,0,8.533-3.814,8.533-8.533v-76.604
				c62.114,1.946,68.907,25.071,74.795,45.628c0.802,2.79,1.579,5.495,2.441,8.081l8.533,25.6c1.195,3.576,4.523,5.837,8.098,5.837
				c0.887,0,1.801-0.145,2.697-0.444C510.643,510.072,513.058,505.242,511.565,500.77z"/>
			<path d="M179.772,201.822c2.671,16.179,16.649,28.578,33.57,28.578c15.855,0,29.099-10.923,32.922-25.6h19.49
				c3.814,14.677,17.058,25.6,32.922,25.6c16.913,0,30.891-12.399,33.57-28.578l29.978-14.985c4.215-2.108,5.922-7.236,3.814-11.452
				c-2.099-4.215-7.236-5.931-11.452-3.814l-24.243,12.126c-5.026-12.604-17.297-21.564-31.667-21.564
				c-15.863,0-29.107,10.923-32.922,25.6h-19.49c-3.823-14.677-17.067-25.6-32.922-25.6c-14.37,0-26.641,8.96-31.667,21.564
				l-24.252-12.126c-4.224-2.116-9.344-0.401-11.452,3.814s-0.401,9.344,3.814,11.452L179.772,201.822z M298.675,179.2
				c9.412,0,17.067,7.654,17.067,17.067c0,9.412-7.654,17.067-17.067,17.067c-9.412,0-17.067-7.654-17.067-17.067
				C281.609,186.854,289.263,179.2,298.675,179.2z M213.342,179.2c9.412,0,17.067,7.654,17.067,17.067
				c0,9.412-7.654,17.067-17.067,17.067c-9.412,0-17.067-7.654-17.067-17.067C196.275,186.854,203.93,179.2,213.342,179.2z"/>
			<path d="M392.201,220.527c10.112-3.43,17.408-13.005,17.408-24.26V179.2c0-12.023-6.707-21.154-17.067-24.354V93.867
				C392.542,37.726,354.816,0,298.675,0H76.809c-3.593,0-6.801,2.253-8.021,5.623c-1.229,3.379-0.205,7.159,2.551,9.463
				c0.478,0.401,48.137,40.661,48.137,78.78V128c0,4.719,3.814,8.533,8.533,8.533c4.087,0,96.631-0.452,165.53-38.306
				c11.546,29.986,40.926,38.306,56.337,38.306c4.71,0,8.533-3.814,8.533-8.533c0-4.71-3.823-8.533-8.533-8.533
				c-1.459,0-35.755-0.41-42.837-35.806c-0.546-2.748-2.415-5.052-4.983-6.161c-2.577-1.109-5.53-0.879-7.902,0.597
				C240,111.94,162.167,118.11,136.542,119.219V93.867c0-30.336-22.519-59.716-38.562-76.8h200.695c46.652,0,76.8,30.148,76.8,76.8
				v68.267c0,4.719,3.814,8.533,8.533,8.533c5.658,0,8.533,2.876,8.533,8.533v17.067c0,4.71-3.831,8.533-8.533,8.533
				c-4.719,0-8.533,3.823-8.533,8.533c0,0.316-0.213,31.829-15.949,63.462c-10.991,9.711-34.219,16.896-48.435,20.335
				C304.077,276.54,288.051,256,256.009,256c-32.051,0-48.077,20.54-55.083,41.131c-14.037-3.396-36.855-10.436-48.017-19.959
				c-16.077-31.582-16.367-63.522-16.367-63.846c-0.017-4.702-3.831-8.525-8.533-8.525c-4.71,0-8.533-3.823-8.533-8.533V179.2
				c0-5.257,3.268-8.533,8.533-8.533c4.71,0,8.533-3.814,8.533-8.533c0-4.71-3.823-8.533-8.533-8.533
				c-14.601,0-25.6,11.008-25.6,25.6v17.067c0,11.255,7.296,20.838,17.408,24.26c0.922,11.93,4.378,36.992,17.033,62.652
				c0.128,0.674,0.247,1.331,0.529,1.963C144.538,350.14,164.42,409.6,256.009,409.6c65.621,0,108.467-21.06,119.014-125.594
				C387.84,258.065,391.279,232.593,392.201,220.527z M256.009,392.533c-60.373,0-88.559-25.643-99.388-92.834
				c14.08,7.142,30.532,11.716,40.397,14.063c-0.495,3.772-0.742,7.339-0.742,10.505c0,4.71,3.806,8.516,8.508,8.525h0.026
				c4.693,0,8.508-3.806,8.533-8.499c0.009-2.091,0.717-51.226,42.667-51.226s42.658,49.135,42.667,51.2
				c0,4.719,3.814,8.533,8.533,8.533c4.71,0,8.533-3.814,8.533-8.533c0-3.166-0.256-6.733-0.751-10.505
				c9.992-2.372,26.726-7.04,40.926-14.336C345.796,369.331,319.753,392.533,256.009,392.533z"/>
		</g>
	</g>
</g>
<g>
</g>
<g>
</g>
<g>
</g>
<g>
</g>
<g>
</g>
<g>
</g>
<g>
</g>
<g>
</g>
<g>
</g>
<g>
</g>
<g>
</g>
<g>
</g>
<g>
</g>
<g>
</g>
<g>
</g>
</svg>
