<svg xmlns="http://www.w3.org/2000/svg" width="271" height="58" viewBox="0 0 271 58">
  <g id="Group_87" data-name="Group 87" transform="translate(-243 -43)">
    <text id="GDG_DevFest_Season_2019" data-name="GDG DevFest
Season 2019" transform="translate(368 66)" fill="#fff" font-size="24" font-family="ProductSans-Regular, Product Sans"><tspan x="0" y="0">GDG DevFest</tspan><tspan x="0" y="29">Season 2019</tspan></text>
    <g id="Group_86" data-name="Group 86" transform="translate(-6.744 -349.97)">
      <g id="Group_13" data-name="Group 13">
        <g id="Path_1" data-name="Path 1">
          <path id="Path_154" data-name="Path 154" d="M252.95,427.69l-.03-.01a1.3,1.3,0,0,1-.15-.1A1.738,1.738,0,0,0,252.95,427.69Z" fill="#fff"/>
          <path id="Path_155" data-name="Path 155" d="M287.44,411.29l-15.34,9-11.05-6.49a9.021,9.021,0,0,0-2.17-.92l21.94-12.85a6.387,6.387,0,0,1,3.23-.86,6.525,6.525,0,0,1,3.39,12.12Z" fill="#fff"/>
          <path id="Path_156" data-name="Path 156" d="M252.77,427.58a1.3,1.3,0,0,0,.15.1l.03.01A1.738,1.738,0,0,1,252.77,427.58Z" fill="#030504"/>
        </g>
      </g>
      <g id="Path_2" data-name="Path 2">
        <path id="Path_157" data-name="Path 157" d="M337.17,431.01l-21.92,12.86c-.11.07-.21.13-.32.19a6.538,6.538,0,1,1-6.26-11.48l15.31-8.98,11.08,6.5A8.974,8.974,0,0,0,337.17,431.01Z" fill="#fff"/>
        <path id="Path_158" data-name="Path 158" d="M343.19,427.48a6.025,6.025,0,0,0,.59-.39,5.9,5.9,0,0,1-.66.45c-.12.07-.25.14-.37.2Z" fill="#fff"/>
        <path id="Path_159" data-name="Path 159" d="M345.76,424.7c-.07.16-.16.32-.25.48a5.077,5.077,0,0,1-.42.61A6.374,6.374,0,0,0,345.76,424.7Z" fill="#fff"/>
        <path id="Path_160" data-name="Path 160" d="M345.09,425.79a5.077,5.077,0,0,0,.42-.61c.09-.16.18-.32.25-.48A6.374,6.374,0,0,1,345.09,425.79Zm-1.9,1.69-.44.26c.12-.06.25-.13.37-.2a5.9,5.9,0,0,0,.66-.45A6.025,6.025,0,0,1,343.19,427.48Z" fill="#030504"/>
      </g>
      <g id="Group_14" data-name="Group 14">
        <g id="Path_3" data-name="Path 3">
          <path id="Path_161" data-name="Path 161" d="M280.83,444.03l-21.94-12.85-1.97-1.16-3.97-2.33a1.738,1.738,0,0,1-.18-.11,2.7,2.7,0,0,1-.33-.22c-.07-.05-.13-.09-.19-.14-.17-.13-.33-.27-.48-.41a6.658,6.658,0,0,1-1.83-3.15,6.5,6.5,0,0,1,.74-4.95,6.582,6.582,0,0,1,5.55-3.17l.67-.01a6.524,6.524,0,0,1,2.64.86l9.6,5.63,1.48.87,1.49.87,15.34,9a6.524,6.524,0,0,1,2.4,8.92,6.539,6.539,0,0,1-8.92,2.41Z" fill="#fff"/>
          <path id="Path_162" data-name="Path 162" d="M252.95,427.69l-.03-.01a1.3,1.3,0,0,1-.15-.1A1.738,1.738,0,0,0,252.95,427.69Z" fill="#fff"/>
        </g>
      </g>
      <path id="Path_163" data-name="Path 163" d="M346.4,421.47a5.073,5.073,0,0,1,0,.78c-.01.12-.02.25-.04.37a2.439,2.439,0,0,1-.07.46,2.718,2.718,0,0,1-.09.41c-.06.21-.12.42-.19.62s-.16.4-.25.59a6.374,6.374,0,0,1-.67,1.09c-.13.17-.26.33-.4.49q-.165.18-.36.36c-.18.16-.36.31-.55.45a6.025,6.025,0,0,1-.59.39l-.44.26a.01.01,0,0,0-.01.01,6.742,6.742,0,0,1-2.87.66,6.432,6.432,0,0,1-3.29-.9l-9.64-5.65-1.48-.87-1.48-.87-15.31-8.97a6.542,6.542,0,0,1,1.66-11.97,6.686,6.686,0,0,1,1.66-.21,6.44,6.44,0,0,1,3.29.9l21.89,12.84,1.95,1.14,3.63,2.13.03.02c.08.04.14.08.22.12s.15.1.23.14a6.28,6.28,0,0,1,2.28,2.27.212.212,0,0,1,.03.07,7.147,7.147,0,0,1,.47,1.01c.07.2.13.41.19.62a3.015,3.015,0,0,1,.09.41,3.392,3.392,0,0,1,.07.46C346.38,421.22,346.39,421.35,346.4,421.47Z" fill="#fff"/>
      <path id="Path_164" data-name="Path 164" d="M343.19,427.48a6.025,6.025,0,0,0,.59-.39,5.9,5.9,0,0,1-.66.45c-.12.07-.25.14-.37.2Z" fill="#fff"/>
      <path id="Path_165" data-name="Path 165" d="M345.76,424.7c-.07.16-.16.32-.25.48a5.077,5.077,0,0,1-.42.61A6.374,6.374,0,0,0,345.76,424.7Z" fill="#fff"/>
    </g>
  </g>
</svg>
